<?xml version="1.0" standalone="no"?>
<!DOCTYPE svg PUBLIC "-//W3C//DTD SVG 1.1//EN" "http://www.w3.org/Graphics/SVG/1.1/DTD/svg11.dtd" >
<svg>
<metadata>
Created by FontForge 20090914 at Thu Feb 23 16:25:15 2012
 By ffonts
Copyright&#194;&#169;1999 Antonio Bucu.  All rights reserved
</metadata>
<defs>
<font id="MachaCow" horiz-adv-x="667" >
  <font-face 
    font-family="MachaCow"
    font-weight="400"
    font-stretch="normal"
    units-per-em="1000"
    panose-1="0 0 4 0 0 0 0 0 0 0"
    ascent="800"
    descent="-200"
    x-height="663"
    cap-height="800"
    bbox="-120 -223 1120 1015"
    underline-thickness="20"
    underline-position="-123"
    unicode-range="U+0020-U+F000"
  />
<missing-glyph horiz-adv-x="500" 
d="M63 0v800h375v-800h-375zM125 63h250v675h-250v-675z" />
    <glyph glyph-name=".notdef" horiz-adv-x="500" 
d="M63 0v800h375v-800h-375zM125 63h250v675h-250v-675z" />
    <glyph glyph-name="glyph1" horiz-adv-x="0" 
 />
    <glyph glyph-name="nonmarkingreturn" horiz-adv-x="333" 
 />
    <glyph glyph-name="space" unicode=" " horiz-adv-x="333" 
 />
    <glyph glyph-name="exclam" unicode="!" horiz-adv-x="349" 
d="M270 213h-270v587h270v-587zM270 0h-270v166h270v-166z" />
    <glyph glyph-name="quotedbl" unicode="&#x22;" horiz-adv-x="476" 
d="M394 474h-140v326h140v-326zM183 474h-140v326h140v-326z" />
    <glyph glyph-name="numbersign" unicode="#" horiz-adv-x="634" 
d="M562 171h-107v-93h-129v93h-68v-93h-129v93h-103v129h103v79h-103v129h103v106h129v-106h68v106h129v-106h107v-129h-107v-79h107v-129zM326 300v79h-68v-79h68z" />
    <glyph glyph-name="dollar" unicode="$" horiz-adv-x="657" 
d="M584 220q0 -57 -36 -101.5t-91 -55.5v-63h-141v60h-49v-60h-139v63q-55 11 -91.5 55t-36.5 102v37h268v-69h48v134h-156q-67 0 -113.5 46.5t-46.5 112.5v86q0 57 36.5 101t91.5 55v77h139v-74h49v74h141v-77q55 -11 91 -55t36 -101v-60h-268v92h-48v-149h157
q66 0 112.5 -46.5t46.5 -112.5v-71z" />
    <glyph glyph-name="percent" unicode="%" horiz-adv-x="495" 
d="M122 604q0 -28 -19.5 -47t-46.5 -19h-110q-27 0 -46.5 19t-19.5 47v130q0 27 19.5 46.5t46.5 19.5h110q27 0 46.5 -19.5t19.5 -46.5v-130zM368 800l-278 -800h-149l278 800h149zM436 66q0 -27 -19.5 -46.5t-46.5 -19.5h-110q-27 0 -46.5 19.5t-19.5 46.5v130
q0 28 19.5 47t46.5 19h110q27 0 46.5 -19t19.5 -47v-130zM11 590v157h-20v-157h20zM325 52v157h-20v-157h20z" />
    <glyph glyph-name="ampersand" unicode="&#x26;" horiz-adv-x="650" 
d="M589 201q0 -67 -47 -114t-114 -47v-40h-270v40q-66 2 -112 48.5t-46 112.5v37q0 67 47 114t114 47q-68 0 -112 31q-49 35 -49 101v68q0 66 46 112.5t112 48.5v40h270v-40q66 0 113.5 -47t47.5 -114v-79h-270v111h-49v-169h192v-124h-192v-170h49v91h270v-58z" />
    <glyph glyph-name="quotesingle" unicode="'" horiz-adv-x="252" 
d="M170 474h-139v326h139v-326z" />
    <glyph glyph-name="parenleft" unicode="(" horiz-adv-x="233" 
d="M161 0q-67 0 -114 47t-47 114v478q0 67 47 114t114 47v-96q-27 0 -46 -19t-19 -46v-478q0 -27 19 -46t46 -19v-96z" />
    <glyph glyph-name="parenright" unicode=")" horiz-adv-x="241" 
d="M161 161q0 -67 -47 -114t-114 -47v96q27 0 46 19t19 46v478q0 27 -19 46t-46 19v96q67 0 114 -47t47 -114v-478z" />
    <glyph glyph-name="asterisk" unicode="*" horiz-adv-x="604" 
d="M537 399l-114 -65l114 -66l-65 -112l-113 66v-131h-129v131l-114 -66l-64 112l113 66l-113 65l64 112l114 -66v131h129v-131l113 66z" />
    <glyph glyph-name="plus" unicode="+" horiz-adv-x="580" 
d="M520 221h-163v-163h-150v163h-163v149h163v163h150v-163h163v-149z" />
    <glyph glyph-name="comma" unicode="," horiz-adv-x="321" 
d="M240 0l-127 -178v178h-83v184h210v-184z" />
    <glyph glyph-name="hyphen" unicode="-" horiz-adv-x="500" 
d="M418 269h-376v129h376v-129z" />
    <glyph glyph-name="hyphen" unicode="&#x2010;" horiz-adv-x="500" 
d="M418 269h-376v129h376v-129z" />
    <glyph glyph-name="period" unicode="." horiz-adv-x="320" 
d="M240 0h-210v184h210v-184z" />
    <glyph glyph-name="slash" unicode="/" horiz-adv-x="365" 
d="M297 800l-129 -800h-149l129 800h149z" />
    <glyph glyph-name="zero" unicode="0" horiz-adv-x="662" 
d="M587 324q0 -66 -47 -113t-113 -47h-267q-66 0 -113 47t-47 113v316q0 66 47 113t113 47h267q66 0 113 -47t47 -113v-316zM560 0h-532v133h532v-133zM318 291v380h-49v-380h49z" />
    <glyph glyph-name="one" unicode="1" horiz-adv-x="487" 
d="M415 0h-415v129h75v542h-75v129h344v-671h71v-129z" />
    <glyph glyph-name="two" unicode="2" horiz-adv-x="653" 
d="M588 481q0 -67 -47 -114t-113 -47h-158v-191h310v-129h-580v289q0 67 47 114t114 47h158v222h-49v-167h-270v134q0 67 47 114t114 47h267q66 0 113 -47t47 -114v-158z" />
    <glyph glyph-name="three" unicode="3" horiz-adv-x="664" 
d="M589 161q0 -67 -47 -114t-114 -47h-267q-67 0 -114 47t-47 114v159h270v-191h49v259h-192v124h192v160h-49v-91h-270v58q0 67 47 114t114 47h267q67 0 114 -47t47 -114v-27q0 -67 -47 -114t-114 -47v-1q67 0 114 -47t47 -114v-128z" />
    <glyph glyph-name="four" unicode="4" horiz-adv-x="700" 
d="M619 0h-269v191h-350l76 545h270l-45 -416h49v480h269v-800z" />
    <glyph glyph-name="five" unicode="5" horiz-adv-x="657" 
d="M588 161q0 -67 -47 -114t-113 -47h-267q-67 0 -114 47t-47 114v134h270v-167h49v286l-319 2v384h580v-129h-310v-128h158q66 0 113 -47t47 -113v-222z" />
    <glyph glyph-name="six" unicode="6" horiz-adv-x="668" 
d="M590 605h-270v65h-49v-92h158q67 0 114 -47t47 -114v-256q0 -67 -47 -114t-114 -47h-268q-67 0 -114 47t-47 114v478q0 67 47 114t114 47h268q67 0 114 -47t47 -114v-34zM319 130v320h-48v-320h48z" />
    <glyph glyph-name="seven" unicode="7" horiz-adv-x="629" 
d="M568 800l-219 -800h-270l184 671h-263v129h568z" />
    <glyph glyph-name="eight" unicode="8" horiz-adv-x="664" 
d="M589 161q0 -67 -47.5 -114t-113.5 -47h-267q-67 0 -114 47t-47 114v128q0 67 47 114t114 47q-67 0 -114 47.5t-47 114.5v27q0 67 47 114t114 47h267q66 0 113.5 -47t47.5 -114v-27q0 -67 -47 -114.5t-114 -47.5q66 0 113.5 -47t47.5 -114v-128zM319 512v160h-49v-160h49z
M319 129v253h-49v-253h49z" />
    <glyph glyph-name="nine" unicode="9" horiz-adv-x="669" 
d="M590 161q0 -67 -47 -114t-114 -47h-268q-67 0 -114 47t-47 114v34h271v-65h49v92h-159q-67 0 -114 47t-47 114v256q0 67 47 114t114 47h268q67 0 114 -47t47 -114v-478zM320 350v320h-49v-320h49z" />
    <glyph glyph-name="colon" unicode=":" horiz-adv-x="315" 
d="M240 281h-210v184h210v-184zM240 0h-210v184h210v-184z" />
    <glyph glyph-name="semicolon" unicode=";" horiz-adv-x="315" 
d="M240 281h-210v184h210v-184zM240 0l-127 -178v178h-83v184h210v-184z" />
    <glyph glyph-name="equal" unicode="=" horiz-adv-x="626" 
d="M552 419h-516v129h516v-129zM552 231h-516v129h516v-129z" />
    <glyph glyph-name="question" unicode="?" horiz-adv-x="656" 
d="M592 459q0 -67 -47.5 -114t-114.5 -47h-16v-108h-271v76q0 67 47 114.5t114 47.5h16v243h-49v-117h-271v84q0 68 47.5 115t114.5 47h268q67 0 114.5 -47.5t47.5 -114.5v-179zM414 0h-271v141h271v-141z" />
    <glyph glyph-name="A" unicode="A" horiz-adv-x="671" 
d="M589 0h-270v319h-49v-319h-270v639q0 67 47 114t114 47h267q67 0 114 -47t47 -114v-639zM319 450v222h-49v-222h49z" />
    <glyph glyph-name="B" unicode="B" horiz-adv-x="664" 
d="M589 161q0 -67 -47 -114t-114 -47h-428v800h428q67 0 114 -47t47 -114v-27q0 -67 -47 -114t-114 -47v-1q67 0 114 -47t47 -114v-128zM319 512v160h-49v-160h49zM319 129v253h-49v-253h49z" />
    <glyph glyph-name="C" unicode="C" horiz-adv-x="648" 
d="M589 161q0 -67 -47 -114t-114 -47h-267q-67 0 -114 47t-47 114v478q0 67 47 114t114 47h267q67 0 114 -47t47 -114v-127h-270v158h-49v-542h49v129h270v-96z" />
    <glyph glyph-name="D" unicode="D" 
d="M589 161q0 -67 -47 -114t-114 -47h-428v800h428q67 0 114 -47t47 -114v-478zM319 128v542h-49v-542h49z" />
    <glyph glyph-name="E" unicode="E" horiz-adv-x="553" 
d="M494 0h-494v800h494v-130h-224v-158h201v-130h-201v-254h224v-128z" />
    <glyph glyph-name="F" unicode="F" horiz-adv-x="547" 
d="M494 670h-224v-158h201v-130h-201v-382h-270v800h494v-130z" />
    <glyph glyph-name="G" unicode="G" horiz-adv-x="659" 
d="M589 161q0 -67 -47 -114t-114 -47h-267q-67 0 -114 47t-47 114v478q0 67 47 114t114 47h267q67 0 114 -47t47 -114v-64h-270v95h-49v-542h49v322h270v-289z" />
    <glyph glyph-name="H" unicode="H" horiz-adv-x="669" 
d="M588 0h-270v319h-48v-319h-270v800h270v-350h48v350h270v-800z" />
    <glyph glyph-name="I" unicode="I" horiz-adv-x="350" 
d="M270 0h-270v800h270v-800z" />
    <glyph glyph-name="J" unicode="J" 
d="M588 161q0 -67 -47 -114t-113 -47h-267q-67 0 -114 47t-47 114v165h270v-196h49v670h269v-639z" />
    <glyph glyph-name="K" unicode="K" horiz-adv-x="680" 
d="M612 0h-294l-48 382v-382h-270v800h270v-289l48 289h289l-125 -350z" />
    <glyph glyph-name="L" unicode="L" horiz-adv-x="543" 
d="M494 0h-494v800h270v-672h224v-128z" />
    <glyph glyph-name="M" unicode="M" horiz-adv-x="900" 
d="M824 0h-270l-50 431l-50 -431h-85l-49 431l-50 -431h-270l92 800h270l50 -431l50 431h269z" />
    <glyph glyph-name="N" unicode="N" horiz-adv-x="731" 
d="M650 0h-270l-110 440v-440h-270v800h270l110 -440v440h270v-800z" />
    <glyph glyph-name="O" unicode="O" 
d="M589 161q0 -67 -47 -114t-114 -47h-267q-67 0 -114 47t-47 114v478q0 67 47 114t114 47h267q67 0 114 -47t47 -114v-478zM319 128v542h-49v-542h49z" />
    <glyph glyph-name="P" unicode="P" horiz-adv-x="649" 
d="M588 418q0 -67 -47 -114t-114 -47h-157v-257l-270 1v799h427q67 0 114 -47t47 -114v-221zM318 387v284h-48v-284h48z" />
    <glyph glyph-name="Q" unicode="Q" horiz-adv-x="670" 
d="M589 161q0 -67 -47 -114t-114 -47h-267q-67 0 -114 47t-47 114v478q0 67 47 114t114 47h267q67 0 114 -47t47 -114v-478zM589 -94q-44 -40 -126 -40q-33 0 -105 9t-108 9q-92 0 -144 -46v95q52 45 144 45q35 0 107 -8.5t105 -8.5q83 0 127 40v-95zM319 128v542h-49v-542
h49z" />
    <glyph glyph-name="R" unicode="R" horiz-adv-x="674" 
d="M601 2l-273 -2l-59 322v-321l-269 1v798h427q66 0 113 -47t47 -113v-158q0 -60 -39 -104.5t-97 -53.5l84 -32zM318 449v222h-49v-222h49z" />
    <glyph glyph-name="S" unicode="S" horiz-adv-x="661" 
d="M589 161q0 -67 -47 -114t-114 -47h-267q-67 0 -114 47t-47 114v158h270v-190h49v253h-158q-67 0 -114 47t-47 114v96q0 67 47 114t114 47h267q67 0 114 -47t47 -114v-73h-270v106h-49v-160h158q67 0 114 -47t47 -114v-190z" />
    <glyph glyph-name="T" unicode="T" horiz-adv-x="608" 
d="M551 672h-141v-672h-270v672h-140v128h551v-128z" />
    <glyph glyph-name="U" unicode="U" 
d="M588 161q0 -67 -47 -114t-113 -47h-267q-67 0 -114 47t-47 114v639h270v-672h49v672h269v-639z" />
    <glyph glyph-name="V" unicode="V" horiz-adv-x="656" 
d="M588 800l-126 -800h-335l-127 800h270l24 -543l24 543h270z" />
    <glyph glyph-name="W" unicode="W" horiz-adv-x="896" 
d="M824 800l-93 -800h-269l-50 431l-50 -431h-270l-92 800h270l50 -431l49 431h85l50 -431l50 431h270z" />
    <glyph glyph-name="X" unicode="X" horiz-adv-x="753" 
d="M685 0h-294l-49 269l-48 -269h-294l131 450l-125 350h288l48 -266l49 266h288l-125 -350z" />
    <glyph glyph-name="Y" unicode="Y" 
d="M588 161q0 -67 -47 -114t-113 -47h-267q-67 0 -114 47t-47 114v58h270v-89h49v127h-158q-67 0 -114 47t-47 113v383h270v-416h49v416h269v-639z" />
    <glyph glyph-name="Z" unicode="Z" horiz-adv-x="639" 
d="M577 0h-577l257 671h-257v129h577l-258 -671h258v-129z" />
    <glyph glyph-name="bracketleft" unicode="[" horiz-adv-x="234" 
d="M162 0h-162v800h162v-96h-66v-608h66v-96z" />
    <glyph glyph-name="backslash" unicode="\" horiz-adv-x="362" 
d="M289 0h-149l-129 800h149z" />
    <glyph glyph-name="bracketright" unicode="]" horiz-adv-x="243" 
d="M162 0h-162v96h67v608h-67v96h162v-800z" />
    <glyph glyph-name="underscore" unicode="_" horiz-adv-x="602" 
d="M645 -155h-645v126h645v-126z" />
    <glyph glyph-name="grave" unicode="`" horiz-adv-x="273" 
d="M191 454l-164 346h164v-346z" />
    <glyph glyph-name="a" unicode="a" horiz-adv-x="666" 
d="M584 0h-424q-67 0 -113.5 46.5t-46.5 113.5v188q0 66 46.5 113t113.5 47h156v32h-316v127h425q66 0 112.5 -47t46.5 -113v-507zM316 127v252h-48v-252h48z" />
    <glyph glyph-name="b" unicode="b" horiz-adv-x="665" 
d="M588 161q0 -67 -47 -114t-113 -47h-428v800h270v-129h158q66 0 113 -47t47 -113v-350zM318 128v414h-48v-414h48z" />
    <glyph glyph-name="c" unicode="c" horiz-adv-x="644" 
d="M584 160q0 -67 -46.5 -113.5t-112.5 -46.5h-265q-67 0 -113.5 46.5t-46.5 113.5v347q0 66 46.5 113t113.5 47h265q66 0 112.5 -47t46.5 -113v-65h-268v96h-48v-411h48v94h268v-61z" />
    <glyph glyph-name="d" unicode="d" horiz-adv-x="670" 
d="M588 0h-427q-67 0 -114 47t-47 114v350q0 66 47 113t114 47h157v129h270v-800zM318 128v414h-48v-414h48z" />
    <glyph glyph-name="e" unicode="e" horiz-adv-x="659" 
d="M584 160q0 -67 -46.5 -113.5t-112.5 -46.5h-265q-67 0 -113.5 46.5t-46.5 113.5v347q0 66 46.5 113t113.5 47h265q66 0 112.5 -47t46.5 -113v-252h-316v-128h48v74h268v-41zM316 386v152h-48v-151z" />
    <glyph glyph-name="f" unicode="f" horiz-adv-x="535" 
d="M468 444h-107v-444h-270v444h-91v124h91v71q0 67 47 114t113 47h213v-130h-103v-102h107v-124z" />
    <glyph glyph-name="g" unicode="g" horiz-adv-x="663" 
d="M584 -60q0 -66 -46.5 -113t-112.5 -47h-265q-67 0 -113.5 47t-46.5 113v33h268v-64h48v91h-156q-66 0 -113 46.5t-47 113.5v347q0 66 47 113t113 47h265q66 0 112.5 -47t46.5 -113v-567zM316 127v411h-48v-411h48z" />
    <glyph glyph-name="h" unicode="h" horiz-adv-x="669" 
d="M588 0h-269v542h-49v-542h-270v800h270v-129h158q66 0 113 -47t47 -113v-511z" />
    <glyph glyph-name="i" unicode="i" horiz-adv-x="352" 
d="M270 708h-270v126h270v-126zM270 0h-270v671h270v-671z" />
    <glyph glyph-name="j" unicode="j" horiz-adv-x="620" 
d="M540 709h-271v122h271v-122zM540 -62q0 -67 -47 -114t-114 -47h-268q-67 0 -114 47t-47 114v26h270v-57h49v764h271v-733z" />
    <glyph glyph-name="k" unicode="k" horiz-adv-x="671" 
d="M611 0h-293l-49 247v-246h-269v829h269v-454l49 288h288l-125 -350z" />
    <glyph glyph-name="l" unicode="l" horiz-adv-x="352" 
d="M270 0h-270v850h270v-850z" />
    <glyph glyph-name="m" unicode="m" horiz-adv-x="982" 
d="M901 0h-268v540h-49v-540h-268v540h-48v-540h-268v667h741q66 0 113 -47t47 -113v-507z" />
    <glyph glyph-name="n" unicode="n" horiz-adv-x="666" 
d="M584 0h-268v540h-48v-540h-268v667h425q66 0 112.5 -47t46.5 -113v-507z" />
    <glyph glyph-name="o" unicode="o" horiz-adv-x="663" 
d="M584 160q0 -67 -46.5 -113.5t-112.5 -46.5h-265q-67 0 -113.5 46.5t-46.5 113.5v347q0 66 46.5 113t113.5 47h265q66 0 112.5 -47t46.5 -113v-347zM316 127v411h-48v-411h48z" />
    <glyph glyph-name="p" unicode="p" horiz-adv-x="663" 
d="M586 160q0 -66 -47 -113t-114 -47h-157v-128h-270v798h427q67 0 114 -46.5t47 -113.5v-350zM316 129v414h-48v-414h48z" />
    <glyph glyph-name="q" unicode="q" horiz-adv-x="670" 
d="M587 -128h-269v128h-158q-66 0 -113 47t-47 113v350q0 67 47 113.5t113 46.5h427v-798zM318 129v414h-49v-414h49z" />
    <glyph glyph-name="r" unicode="r" horiz-adv-x="623" 
d="M584 442h-268v96h-48v-538h-268v667h425q66 0 112.5 -47t46.5 -113v-65z" />
    <glyph glyph-name="s" unicode="s" horiz-adv-x="655" 
d="M584 160q0 -67 -46.5 -113.5t-112.5 -46.5h-265q-67 0 -113.5 46.5t-46.5 113.5v37h268v-69h48v124h-156q-67 0 -113.5 46.5t-46.5 112.5v96q0 66 46.5 112.5t113.5 46.5h265q66 0 112.5 -46.5t46.5 -112.5v-60h-268v92h-48v-159h157q66 0 112.5 -46.5t46.5 -112.5v-61z
" />
    <glyph glyph-name="t" unicode="t" horiz-adv-x="535" 
d="M468 548h-99v-548h-270v548h-99v123h99v129h270v-129h99v-123z" />
    <glyph glyph-name="u" unicode="u" horiz-adv-x="664" 
d="M584 160q0 -67 -46.5 -113.5t-112.5 -46.5h-265q-67 0 -113.5 46.5t-46.5 113.5v507h268v-540h48v540h268v-507z" />
    <glyph glyph-name="v" unicode="v" horiz-adv-x="655" 
d="M584 667l-126 -667h-332l-126 667h268l24 -412l24 412h268z" />
    <glyph glyph-name="w" unicode="w" horiz-adv-x="891" 
d="M818 667l-92 -667h-268l-49 300l-49 -300h-268l-92 667h268l49 -417l50 417h84l50 -417l49 417h268z" />
    <glyph glyph-name="x" unicode="x" horiz-adv-x="748" 
d="M680 0h-292l-48 201l-48 -201h-292l130 385l-124 282h286l48 -220l48 220h286l-124 -282z" />
    <glyph glyph-name="y" unicode="y" horiz-adv-x="713" 
d="M631 -60q0 -66 -46.5 -112.5t-112.5 -46.5h-264q-65 0 -112 46.5t-47 112.5v28h267v-59h48v91h-156q-65 0 -112 46.5t-47 112.5v504h267v-537h48v537h267v-723z" />
    <glyph glyph-name="z" unicode="z" horiz-adv-x="638" 
d="M573 0h-573l256 538h-236v128h553l-256 -538h256v-128z" />
    <glyph glyph-name="asciitilde" unicode="~" horiz-adv-x="604" 
d="M536 356q-44 -39 -126 -39q-33 0 -105 8.5t-107 8.5q-93 0 -145 -46v135q52 46 144 46q36 0 108 -9t105 -9q82 0 126 40v-135z" />
    <glyph glyph-name="bullet" unicode="&#x2022;" horiz-adv-x="352" 
d="M270 300h-270v239h270v-239z" />
    <glyph glyph-name="acute" unicode="&#xb4;" horiz-adv-x="257" 
d="M191 800l-164 -346v346h164z" />
    <glyph glyph-name="questiondown" unicode="&#xbf;" horiz-adv-x="642" 
d="M449 659h-271v141h271v-141zM592 162q0 -67 -47.5 -114.5t-114.5 -47.5h-268q-67 0 -114.5 47.5t-47.5 114.5v209q0 67 47.5 114t114.5 47h16v78h271v-46q0 -67 -47.5 -114.5t-114.5 -47.5h-16v-273h49v137h272v-104z" />
    <glyph glyph-name="exclamdown" unicode="&#xa1;" horiz-adv-x="350" 
d="M270 634h-270v166h270v-166zM270 0h-270v587h270v-587z" />
    <glyph glyph-name="emdash" unicode="&#x2014;" horiz-adv-x="639" 
d="M557 269h-535v129h535v-129z" />
    <glyph glyph-name="quotedblleft" unicode="&#x201c;" horiz-adv-x="559" 
d="M479 438h-209v184l126 178v-178h83v-184zM219 438h-209v184l126 178v-178h83v-184z" />
    <glyph glyph-name="quotedblright" unicode="&#x201d;" horiz-adv-x="554" 
d="M479 616l-126 -178v178h-83v184h209v-184zM219 616l-126 -178v178h-83v184h209v-184z" />
    <glyph glyph-name="quoteleft" unicode="&#x2018;" horiz-adv-x="319" 
d="M240 438h-210v184l127 178v-178h83v-184z" />
    <glyph glyph-name="quoteright" unicode="&#x2019;" horiz-adv-x="314" 
d="M240 616l-127 -178v178h-83v184h210v-184z" />
    <glyph glyph-name=".null" horiz-adv-x="333" 
 />
    <glyph glyph-name="Ntilde" unicode="&#xd1;" horiz-adv-x="731" 
d="M564 894q-51 -46 -146 -46q-39 0 -123 10t-126 10q-108 0 -169 -53v120q62 54 170 54q42 0 125.5 -10t122.5 -10q95 0 146 46v-121zM650 0h-270l-110 440v-440h-270v800h270l110 -440v440h270v-800z" />
    <glyph glyph-name="ntilde" unicode="&#xf1;" horiz-adv-x="663" 
d="M483 745q-44 -40 -126 -40q-33 0 -105 9t-108 9q-92 0 -144 -46v123q52 46 145 46q35 0 107 -8.5t105 -8.5q82 0 126 39v-123zM584 0h-268v540h-48v-540h-268v667h425q66 0 112.5 -47t46.5 -113v-507z" />
    <glyph glyph-name="registered" unicode="&#xae;" horiz-adv-x="501" 
d="M427 623q0 -78 -54 -130t-129 -52q-76 0 -130.5 52t-54.5 130q0 77 54 129t130 52q75 0 129.5 -52t54.5 -129zM390 623h1q0 64 -42.5 107.5t-104.5 43.5q-63 0 -106 -43.5t-43 -107.5q0 -66 42.5 -109t105.5 -43q62 0 104.5 43.5t42.5 108.5zM332 518h-35l-55 90h-36v-90
h-33v209h80q75 0 75 -60q0 -50 -56 -57zM293 669h1q0 31 -45 31h-44v-65h38q50 0 50 34z" />
    <glyph glyph-name="copyright" unicode="&#xa9;" horiz-adv-x="466" 
d="M390 640q0 -70 -48.5 -117t-116.5 -47q-69 0 -118 47t-49 117t48.5 116.5t117.5 46.5q68 0 117 -47t49 -116zM356 640h1q0 58 -38 96.5t-94 38.5t-95 -38.5t-39 -96.5q0 -59 38 -98t95 -39q56 0 94 39t38 98zM311 609q-6 -32 -28 -50.5t-52 -18.5q-44 0 -71 28.5
t-27 71.5q0 44 25.5 72t69.5 28q32 0 55 -18t28 -50h-29q-10 40 -53 40q-29 0 -46 -20t-17 -51q0 -30 17.5 -51.5t46.5 -21.5q44 0 51 41h30z" />
    <glyph glyph-name="trademark" unicode="&#x2122;" horiz-adv-x="514" 
d="M429 628h-31v141l-54 -141h-21l-55 141v-141h-32v173h47l49 -127l49 127h48v-173zM206 776h-53v-148h-30v148h-55v25h138v-25z" />
    <glyph glyph-name="product" unicode="&#x220f;" horiz-adv-x="751" 
d="M700 370h-57q-15 -49 -57.5 -81t-95.5 -32h-158v-257l-270 1l1 369h-49v129h49v59h-49v129h48v113h428q53 0 95.5 -32t57.5 -81h57v-129h-49v-59h49v-129zM381 387v284h-49v-284h49z" />
    <glyph glyph-name="logicalnot" unicode="&#xac;" horiz-adv-x="1165" 
d="M1112 326q-2 1 -10.5 7t-13.5 6q-3 0 -6 -2q-19 32 -74 137q-17 7 -28.5 23l-22.5 32q0 9 -4 11q-2 -2 -4 -3q-8 10 -18 33l-4 -4l-26 38q-17 24 -33 32q-17 -15 -32 -49q-20 -44 -27 -54q-1 5 -8 16t-7 17q0 7 22 33t26 45q7 2 18.5 -2t15.5 -2q11 -15 25 -18
q28 -27 61 -69l54 -72l6 -21t12 -16q-1 3 -3 3q-3 0 -4 -3q34 -72 59 -99q2 2 4 2t9 -7.5t13 -5.5q0 -1 8 -11v0q-1 0 -8 3zM898 404q-8 -1 -15 -12.5t-15 -13.5q5 -3 4 -4h-5.5h-5.5q2 9 -4.5 21.5t-6.5 16.5q0 8 11 14q22 5 37 -22zM931 319q2 -7 2 -14q0 -13 -8.5 -35.5
t-8.5 -35.5q-1 3 -3 3q-3 0 -4 -3q0 1 0 -8q0 -4 -4 -3q-3 3 -4 3q-2 0 -3 -6.5t-4 -7.5q-31 -14 -41 -52q-5 -35 -11 -70l18 -44q14 -24 38 -26q-25 -5 -35 19q-16 36 -21 40q-4 15 -3.5 46t-3.5 46q-1 -3 -11 -3q-40 0 -52 7q-28 11 -136 70q-12 -2 -31 3.5t-26 5.5
q-12 0 -21 -9q-5 5 -7 4q-4 -8 -11 -59q-6 -47 -8 -47q-3 0 -3 58q7 6 7 19t-7 29q-15 2 -37 15q-3 0 -3 -4.5t-4 -3.5q-2 3 -4 3t-4 -3q1 -7 -1.5 -8.5t-5.5 -2.5q14 -30 29 -111q-3 2 -5 2q-3 0 -2.5 -9t-3.5 -11q-1 22 4 26q-6 11 -9 30l-6 33q-4 30 -27 49
q-14 11 -49 26.5t-49 27.5l-26.5 16.5t-14.5 20.5q7 4 0 7q-3 1 -6.5 -3t-4.5 -4q-6 -4 -8 -2q-6 4 -14 5l-2 -4q-1 0 -2.5 4.5t-5.5 4.5q-3 0 -9 -5q-28 0 -44 4q4 2 4 7q0 9 0 8q-11 9 -15 7l-5 -10q-3 -6 -10 -4q-3 2 -3 10.5t-8 7.5l-6 -6t-5 -9q-4 2 -3 7v8
q16 20 47 11q4 -8 10 -8q4 0 12 4t12 4q-10 8 -10 12l1 1q3 -1 9 -6q1 0 3.5 -3.5t4.5 -3.5q2 1 3 4v7q2 -2 5 -4t6 0l10.5 15t5.5 13q0 7 -9 9q-9 0 -11 -3q-2 -7 8 -15q-14 20 -37 15q-4 -2 -4 -9q0 -11 0 -10q2 6 -7 15q-4 1 -6 1q-8 0 -10.5 -13.5t-7.5 -13.5
q-4 0 -10 4q-3 29 11 51q-1 3 -1 6q0 6 5 19t5 18q0 9 -12 9q-28 -5 -62 -29q-55 -41 -56 -41q-10 -1 -22 -15q-2 3 -4 3t-4 -3t-9 -3v0q0 1 2 3q-5 5 -8 4q-1 -4 -4 -7q-1 0 -3 3q7 2 83 52q61 41 109 37q2 5 10.5 9.5t8.5 8.5q0 2 -1 4q-5 0 -3 4q4 6 3 7q-5 22 -3 57
q3 49 3 57q-61 24 -110 56q-2 2 -5 2t-8.5 -3t-7.5 -3q-4 0 -5 7q6 6 14 6q7 0 19 -5q16 -7 18 -8q17 -13 46 -26l47 -22q8 -10 8 -22q0 -8 -7 -27.5t-5 -31.5q-10 -32 4 -44q34 31 71 31q8 0 14 -2q1 -5 3 -10t8 -5q7 7 7 4q2 -3 8.5 -1.5t10 -3t8.5 -4.5q6 0 17.5 10
t18.5 10q1 0 19 15q12 9 22 9q5 0 10 -2q-6 1 -9 -7.5t-9 -6.5q-2 -6 -11 -15q16 -1 31 -16l24 -25q2 3 2 6q0 6 -9 13.5t-11 10.5q1 0 -8 3q2 -3 11 -3q5 5 4 7q-6 2 -18 7q-1 11 7 15q15 -20 49 -43q40 -27 51 -38q16 -2 32 -5q22 -4 22 -13q0 -5 -6 -11q1 -4 3 -4
q1 0 5 5q3 3 3 -1q2 0 7 -4t7 -4q4 0 4 8q0 19 -1 38q1 25 9 39q-4 2 -1 8q2 7 1 10q-1 -7 3 -18q5 6 9 32q3 20 17 23q17 -22 52 -88q12 7 22 27q14 30 15 32q12 2 18 -8q11 -43 44 -125q5 -12 14 -54q8 -35 20 -53q2 -2 2 -4q0 -4 -4.5 -8.5t-4.5 -6.5t7 -3q6 3 22 4
q1 -4 3 -4q1 0 4 3.5t4 3.5q2 5 -2 10q-6 9 -7 10l-2 2v8q7 -3 10 4t8 7q-3 -2 -3 -4t3 -4q1 0 8 4q0 -9 3 -11q-1 -2 4 -7q1 1 2 1q2 0 5 -7t4 -9zM961 545q-13 7 -26 24l-22 27q1 -1 44 -59q-1 3 4 8zM1009 475q-8 7 -20 27.5t-21 27.5q1 -18 15 -31q24 -21 26 -24z
M809 474q0 20 -9 20q-6 0 -13 -9t-7 -18q2 -4 8 -4q12 0 10 0q4 1 8.5 3t2.5 8zM887 394q4 16 -17 16q-11 0 -9 -9q1 -7 2.5 -14t8.5 -5q-1 5 -1 7q0 6 7 4t9 1zM791 501q-2 1 -6 -0.5t-4 -4.5q0 -2 3 -3q-9 -4 -12.5 -16.5l-6.5 -23.5q-1 2 -3 2q-3 0 -4 -2q17 -2 23 17z
M706 459q7 13 7 28q0 21 -15 49q-12 23 -25 45q-7 -3 -7 -11t7 -11q2 -26 -2 -62l-6 -60q6 -8 9 -8t6 13t11 13q8 8 10 8q3 0 5 -4zM928 279q0 11 -1 11t-5 -6.5t-6 -6.5q-2 1 -3 2q-8 2 -15 -11q2 3 4 3t4.5 -3.5t5.5 -3.5t7.5 6.5t8.5 8.5zM894 297q0 -1 -4 -8q-3 2 -3 12
q5 -15 -15 -23q-2 -7 2.5 -9.5t8.5 -4.5q-2 8 4.5 17.5t6.5 15.5zM891 205q2 4 2 7q0 5 -6 10t-6 8q0 2 2 5v8l-3 3q-4 6 -6 7q-3 0 -2 -6t4 -8q-12 -4 -11.5 -22t-3.5 -23q11 2 30 11zM850 268q0 5 -4.5 1.5t-6.5 2.5q0 -7 -3 -7q-1 0 -4 3t-5 3q-2 -1 -3 -3q-18 0 -18 8
q0 4 6 16.5t6 18.5q0 3 -1 4.5t-1 3.5q0 3 4 9.5t4 9.5q16 0 11 26q-7 -3 -18 0q-4 -1 -7 -4q0 -1 3 -3q-2 -6 -10 -8.5t-8 -10.5q-7 5 -7 9t5 9.5t5 7.5q-3 -5 -5 -5t-4 5t-3 5q-3 -1 -6 -5q-4 2 -4 5t4 9q2 4 0 4q-2 2 -7 -3l-22 48q6 2 18 11q-4 1 -22 -8q-9 11 -8 15
q18 21 15 37q2 3 4 3t4 -3q0 11 12 31.5t10 34.5l-4 4q-12 -5 -23 -28t-21 -31q-2 1 -4 6t-4 5l-3 -3q-7 3 -6 8q2 4 6 6q-9 0 -11 4q-1 3 3 7q-6 -1 -7 4v9q0 6 -4 6q1 -13 11.5 -32.5t10.5 -30.5q0 -13 -13 -33q-14 -23 -16 -33q-1 4 -11 11q1 -13 -9 -13q-11 0 -17 9
q-1 -5 5 -8t6 -5t-4 -5q6 -3 6 -5t-7.5 -3.5t-7.5 -3.5t2 -3t7 4l14 -14t8 -16q-1 -7 -2.5 -10t-8.5 -5q2 12 -10 14q-17 3 -19 5q-1 1 3 7q2 4 -2 5t-4 2t4 3.5t3 4.5q-8 1 -16.5 8.5t-13.5 9.5q-1 -4 -3 -4q-1 0 -4 4t-4 4q-2 -4 -11 -4q2 -13 15 -33q-4 -1 -4.5 -8.5
t-6.5 -6.5v-9q2 5 5 10q4 9 6 10q10 2 13 -9.5t9 -12.5q18 0 55 -7q9 12 15 12q7 0 13 -18q8 -21 13 -24q3 -7 15 -14t11 -15q-1 -2 -1 -5q0 -4 7 -13t7 -14t-6 -9q-23 5 -74 19q-2 -2 -6 -2t-12 2.5t-12 2.5q-7 0 -10 -7q-4 2 -4 7q0 9 0 8q-12 4 -37 3.5t-37 3.5
q-6 -2 -8 -11t-3 -7q2 6 7.5 2.5t7.5 0.5l62 -16q36 -11 56 -32q26 -12 74 -29q5 -6 13 -6.5t12 -4.5q8 -5 18 -5q14 1 16 1q4 3 7 -3q-1 0 -4 3l4 6v1q-5 -2 -6 -2q-3 0 -5 6q20 8 20 38q0 5 -1 14v14q0 12 3 19zM459 526q1 5 1 8q0 5 -3 5q-1 0 -3 -1h-4q-6 0 -10 6
q-6 -2 -1.5 -5.5t-1.5 -5.5q2 -4 8 -1q9 5 10 5q4 -7 4 -8q-3 -3 -6 -5q1 0 6 2zM533 449q-6 3 -6 10q0 2 1 7t1 7q0 4 -5 4q-3 0 -10 -2q0 2 -3.5 7t-3.5 8q0 4 4 7q-5 -4 -7 -15t-4 -15q1 0 3.5 4t4.5 4q2 -1 3 -4q2 -6 -4 -15l18 -15q2 -11 5 -11q6 0 3 19zM585 360
q3 -10 5 -11q1 0 -2 10t-7 12q-12 14 -14 42q-2 34 -8 47q4 -10 4 -27q0 -5 -1 -16v-16q0 -32 15 -44q2 -4 3 -4q3 7 5 7zM448 571q0 1 -1.5 2t-2.5 1q-21 -10 -55 -40q35 6 59 37zM441 475q8 -5 9 -6v0q-5 6 -13 9q3 4 5 4v0q-1 0 -5 4q3 1 3 2q-11 0 -14 -6q5 2 9.5 -2.5
t5.5 -4.5zM418 486q5 5 0 3q-3 5 -5 10q-3 5 2 9q1 -2 -4 -7q-4 1 -4 6v8q1 8 -6 8q-17 0 -23 -15q-2 -14 14 -17q13 -3 26 -5zM525 382q-5 4 -5 8q0 3 5 7q1 2 1 5q0 4 -7 6t-7.5 3t-9 5t-11.5 4t-2 -4q-2 -3 -4 -3t-4 3q-5 6 -7 7q-2 -4 -11 -4q-2 4 -4 6v0
q7 -15 10.5 -18t7.5 -3q3 0 8.5 2.5t7.5 2.5t3 -1q1 -2 -4 -7q15 -7 33 -19zM754 267q-9 11 -8 15q-19 19 -36 66q-5 -2 -37 -7q-30 6 -32 7q-17 6 -20 23q1 -6 -5.5 -8.5t-6.5 -6.5q0 -2 1 -4q-8 -9 -18 -9q-16 0 -30 20q-12 17 -12 49q1 39 -3 51l-1 -1.5t-2 -2.5
q-1 -29 -12 -85q-9 10 -37.5 20.5t-39.5 24.5q-27 15 -44 11q-8 14 -8 22q2 -13 -7 -19q-4 4 -4 11q0 13 0 11q1 6 9.5 7t5.5 8q-18 21 -37 22q-11 -7 -11 -15q0 -4 7 -3q0 -14 -17 -18q-21 -4 -27 -15q-7 1 -4 3q2 -8 -15.5 -13t-13.5 -20q-11 -4 -11 -10q0 -4 4.5 -11.5
t4.5 -10.5t-2 -5q2 -2 4 -2t4 2q0 -1 3.5 -3.5t3.5 -4.5q-1 -2 -4 -3q5 -5 4 0q2 3 4 3t3 -3q41 -4 96 -18q1 6 1 14q0 9 -2.5 28t-2.5 28q0 13 4 22q8 -4 7.5 -18.5t7.5 -18.5q-3 -22 10 -53q16 -34 16 -50q2 1 4 4q13 3 13 8q0 4 -6 10q9 5 30 -4q2 2 4 2t7.5 -4t7.5 -4
q4 0 6 6q9 3 19 4q2 6 6 6q5 0 9 -10q-6 -9 3 -37q8 3 7.5 18t3.5 19q17 -13 62.5 -16t63.5 -17q52 -8 59 -7zM441 430q-2 3 -4 3t-4 -3q-4 3 -4 6q0 2 4 6.5t4 6.5q-2 -3 -4 -3t-3 3q-2 -2 -4 -2q-4 0 -7 9t-4 11q0 -4 4.5 -12t4.5 -11t-2 -6q-3 3 -7 -3q1 0 3 3
q14 -8 23 -8zM378 515l-4.5 3.5t-6.5 3.5q-4 0 -4 -7q2 -2 2 -4t-7.5 -5.5t-5.5 -8.5q-2 -3 -4 -3t-3 3q1 -2 -8 -11q5 -9 8 -9q1 0 3.5 2t4.5 2q3 0 6 -3q10 4 11 23q1 15 8 14zM326 526q-6 2 0 7q5 4 5 7q0 2 -3 7t-2 8q-4 -1 -7 -2l6 -12q3 -9 -7 -12q-11 1 -12 0
q0 1 3 -5q2 -4 -2 -9q-2 3 -5 3q-6 0 -4 -6q1 1 2 3h22q-2 4 3 6l5 2q-1 2 -4 3zM537 283q-42 0 -56 4q-4 -2 -4 -5q0 -2 3 -5l5 -5q2 7 3 8q1 0 3 -5t4 -5t5 5q3 -6 3 -7q-1 0 6 0q4 0 2 4q2 3 3 3t3.5 -4t4.5 -3q5 -5 7 -5q3 0 5 9t3 11zM319 456q-2 -2 -4 -2t-4 2
q0 16 4 22q-2 -1 -7 4q7 1 7 4t-5 3q-3 0 -6 -3q-10 0 -18 11q-2 8 6 19.5t8 17.5q-5 -5 -7 -4q-27 -9 -29 -55q-4 4 -4 11t-4 11l4 4v0q-3 -4 -8 -8q-7 0 -7 4q0 1 3 5.5t3 6.5t-2 3q14 10 37 33l-4 -4q-1 2 -3 2t-6 -4t-6 -4t-3 2q0 -7 -9.5 -15.5t-9.5 -11.5t4 -6
q1 -2 -3.5 -6.5t-11.5 -4.5q-6 0 -11 4q-8 -13 -4 -15q-5 -23 -18 -59h3q4 -3 4 -5t-4 -6t-3 -7q5 3 5 8q0 1 -1 4v5q0 5 7 8q7 -6 16 -6q7 0 21.5 3.5t22.5 3.5q5 0 10 -1q2 -2 4 -2q3 0 8 8q2 1 3 2q1 10 7 10q1 0 3 -1h4q5 0 8 9zM441 279q-2 2 -5 14q-3 8 -10 8v8
q-5 -4 -8 -4q-4 0 -11 8t-14 7q-13 -5 -13 -10t11 -11q8 -4 16 -9q4 5 8 5t8.5 -6.5t6.5 -6.5t3 1q1 0 8 -4z" />
    <glyph glyph-name="nonbreakingspace" unicode="&#xa0;" horiz-adv-x="333" 
 />
    <glyph glyph-name="apple" unicode="&#xf000;" horiz-adv-x="707" 
d="M490 702q0 -42 -27 -84t-65 -55q-15 -5 -42 -7q1 133 132 163q2 -5 2 -17zM642 230q-18 -58 -57 -112q-48 -68 -96 -68q-21 0 -59 13t-58 13q-19 0 -55 -13.5t-56 -13.5q-73 0 -130 120q-50 103 -50 187q0 82 38 140q44 68 122 68q22 0 64 -12t63 -12t63 14t64 14
q72 0 128 -67q-73 -61 -73 -131q0 -45 24 -85q26 -43 68 -55z" />
    <glyph glyph-name="glyph110" horiz-adv-x="1000" 
 />
  </font>
</defs>
</svg>
